<?xml version="1.0" encoding="UTF-8"?><svg id="Template_piranha-img.jpeg" xmlns="http://www.w3.org/2000/svg" viewBox="0 0 693.88 410.16"><path d="M680.89,139.65c-1.15-.26-1.67-.22-2.04-.48-33.84-22.83-71.71-35.54-111.22-44.03-25.98-5.56-52.26-9.08-78.76-10.78-3.41-.22-6.89-.22-7.89-6.34-1.59,5.97-4.45,4.97-8.04,4.67-7.63-.63-15.34,.07-23.02,0-34.76-.37-69.3,1.7-103.55,8.12-3.45,.63-5.15,1.7-5.41,5.74-2,29.02-.07,57.74,6,86.21,.67,3.08-.19,6.49-.3,9.75,0,.56,.19,1.11,.48,2.93,.41-1.82,.56-2.48,.7-3.11,3.45,7.86,3.71,9.64,3.04,18.6,.74-1.37,1.52-2.74,2.26-4.15,17.38,46.92,39.73,91.02,74.68,128.27-6.82-3.89-13.94-7.41-20.46-11.79-34.28-22.79-57.85-54.33-74.09-91.69-2.26-5.15-2.3-11.56-5.45-15.9-6.23-8.64-1.11-19.46-6.78-27.83-.48-.7-1.3-1.15-2.11-1.89,.74-1.63,1.67-3.56,2.56-5.52-.37-.26-.74-.52-1.11-.78-1.19,1.11-2.37,2.22-3.6,3.41-6.75-26.68-10.04-53.92-10.53-82.28-5.37,1.89-10.12,3.37-14.71,5.26-.82,.33-1.41,2.37-1.33,3.6,1.11,24.94,4.48,49.55,10.78,73.75,.59,2.26,.44,4.71,.96,7,.41,1.93,1.3,3.74,1.96,5.6,1.22,3.34,3.19,6.63,3.45,10.04,.44,5.89,3.52,10.64,5.49,15.9,9.75,26.28,22.72,50.81,39.47,73.27,3.19,4.26,6.86,8.19,9.97,12.86-3.89-2.26-7.93-4.34-11.64-6.78-6.86-4.52-13.19-9.49-19.09-14.82-1.96-1.78-3.85-3.59-5.71-5.45-16.38-16.38-28.8-35.91-38.25-57.82-13.38-31.06-21.38-63.67-27.2-96.88-.26-1.59-.52-3.22-.82-4.82-.11-.41-.3-.82-.67-1.93-4.11,2.11-8.26,4.04-12.08,6.37-.78,.48-.93,2.63-.74,3.97,2.56,22.13,7.34,43.81,13.86,65.08,8.38,27.39,18.42,54.11,33.84,78.53,.19,.3,.19,.7-.59,1.93-6.23-5.78-12.93-11.12-18.64-17.34-20.64-22.57-34.02-49.4-44.36-77.9-4.37-12.08-8.04-24.46-12.23-37.32-4.23,2.96-8.52,5.74-12.45,8.97-.78,.63-.7,2.93-.33,4.3,7.52,28.43,19.64,54.85,35.13,79.83,4.11,6.67,8.38,13.23,12.3,20.09-36.02-17.75-55.59-49.44-70.79-85.39-4.6,4.45-8.86,8.34-12.75,12.56-.78,.85-.78,3.3-.15,4.45,11.64,20.79,25.09,40.25,41.36,57.67,.41,.44,.78,.89,1.22,1.41-6.37-.56-22.39-8.52-33.1-17.72-9.45-8.19-18.09-17.34-27.61-26.57-6.15,8.12-12.93,16.68-19.27,25.54-21.13,29.69-37.28,62.23-53.63,94.62-10.3,20.38-20.72,40.69-34.73,58.85-7.67,9.93-16.42,18.72-27.13,25.42-1.63,1-3.34,1.93-5,2.85-.33,.19-.78,.19-1.82,.41,2.22-5.41,4.34-10.38,6.26-15.42,12.42-32.61,19.38-66.49,23.42-101.03,4.3-37.21,4.93-74.53,1.67-111.85-3.82-43.47-12.12-85.95-30.24-126.01-3.37-7.49-7.38-14.71-10.38-22.83,6.89,5.74,14.08,11.12,20.57,17.23,23.46,22.13,40.99,48.62,55.78,77.05,11.49,22.13,21.09,45.07,28.69,68.82,.15,.41,.41,.78,1,1.78,16.71-19.31,35.13-36.47,54.89-52.26,19.83-15.83,40.92-29.8,63.19-42.14-3.56-3.93-6.93-7.63-10.75-11.9-2.08,1.04-4.56,.74-5-3.37,.04,0,.07,.04,.11,.04,.11-.15,.22-.3,.33-.44,1.82-.56,3.63-1.07,5.67-1.7-.78-2.11,1.63-6.67-4.3-6.45,.96,.89,1.85,1.67,2.78,2.48-1.52,2.04-2.82,3.85-4.15,5.67-.15,.04-.33,.11-.48,.15,0,.11,0,.19,.04,.26-2.48-.93-5.26-1.52-7.41-2.93-23.05-15.53-48.92-24.42-75.05-32.84-6.89-2.22-13.82-4.26-20.83-6.45,7.89-2.67,49.66-.07,72.94,7.38,23.46,7.52,46.85,15.38,69.6,22.87-23.94-17.97-51.52-30.43-80.68-39.77,41.4-.44,80.2,10.93,118.34,25.54-32.13-24.28-68.38-39.88-106.85-52.26,9.97-2.08,58.08,5.41,80.98,12.49,26.2,8.12,51.26,19.05,76.46,30.28-8.71-6.6-17.2-13.49-26.13-19.75-8.97-6.3-18.09-12.45-27.65-17.75-9.64-5.34-19.9-9.56-29.8-15.05,12.82,2.48,25.76,4.56,38.47,7.6,34.13,8.12,64.89,23.05,91.54,46.14,1.45,1.3,3.97,2.15,5.89,2,31.28-2.63,62.49-2.15,93.65,1.41,43.95,5,86.46,15.75,127.05,33.65,21.61,9.56,42.44,20.46,60.22,36.36,2.85,2.59,5.52,5.37,8.23,8.15,1.11,1.15,2.04,2.48,3.56,4.34Z"/><path d="M208.8,87.84c-.11,.15-.22,.3-.33,.44-.04,0-.07-.04-.11-.04-.04-.07-.04-.15-.04-.26,.15-.04,.33-.11,.48-.15Z"/><path d="M372.67,199.02c-.84,.5-1.69,1.01-2.52,1.5-3.02-4.26-2.79-8.09,1.66-11.65l-1.18-.44c-1.2,.27-2.4,.54-4.33,.98-1.65-7.42-3.29-14.85-5-22.54,5.13-2.57,10.23-4.62,14.8-7.52,9.1-5.78,18.62-11.2,26.65-18.25,12.88-11.3,11.92-22.54-1.8-32.79-4.68-3.5-9.98-6.18-16.02-9.86,11.56-.79,22.22-1.93,32.91-2.16,17.18-.36,34.4-.7,51.56-.03,47.74,1.86,94.85,7.94,140.43,23.09,17.46,5.81,34.33,13.01,50.22,22.37,1.23,.72,2.4,1.54,4.3,2.76-95.47,1.57-182.65,24.71-256.23,87.76,11.48,24.32,24.37,46.51,43.83,64.16,6.14,5.57,12.57,10.82,19.07,15.97,23.53,18.66,50.96,27.15,80.36,29.68,37.14,3.19,73.16-1.65,106.68-18.77,12.71-6.49,24.41-14.96,35.85-22.07-.95,1.41-2.46,3.98-4.29,6.29-16.32,20.63-38.02,33.55-62.74,40.77-62.74,18.34-122.2,10.55-176.38-26.72-29.71-20.44-50.12-49.22-65.31-81.73-.5-1.07-.97-2.16-1.47-3.23-3.41-7.29-2-10.13,5.96-12.22,1.74-.46,3.43-1.13,5.42-1.8-1.11-4.76,1.59-7.98,5.3-10.9,22.19-17.49,45.66-32.89,71.53-44.44,1.32-.59,2.6-1.29,3.79-2.19-14.34,2.68-27.86,7.82-40.95,14.01-10.56,5-20.84,10.62-31.14,16.15-5.86,3.15-5.76,3.33-12.01,2.55-.28,1.04-.36,2.24-.9,3.19-.91,1.6-2.07,4.32-3.17,4.34-5.24,.12-6.62,4.75-10.63,8.2-.63-1.79-1.39-3.17-1.57-4.62-.37-3.03-.37-6.11-.72-9.15-.04-.33-1.35-.52-2.06-.79,1.76-2.99,5.15-5.69,1.28-10.81-1.02,3.79-1.76,6.52-2.7,10.03-.04-.02,.76,.43,1.55,.87Zm87.95-86.57c4.5,5.28,8.59,10.48,13.1,15.29,8.55,9.13,17.91,17.28,29.71,22.06,10.59,4.28,20.66,3.79,30.41-2.76,4.76-3.2,9.93-5.91,15.19-8.21,12.91-5.64,26.41-7.66,41.19-4.75-26.78-19.98-97.24-30.07-129.61-21.62Zm53.65,48.99c-26.36-6.03-45.66-20.99-58.07-45.55-1.45,29.88,33.69,57.13,58.07,45.55Zm-133.86,26.87c-.44,.26-.89,.52-1.33,.78,.38,2.23,.76,4.46,1.15,6.7,.62,.02,1.24,.04,1.86,.07,.39-1.65,1.2-3.35,1.02-4.94-.11-.96-1.75-1.74-2.7-2.6Z"/><path d="M442.95,277.96c17.7,1.18,34.09-1.37,49.42-10.36-.89,7.09-7.25,13.1-25.41,24.39,16.33,2.81,32.4-.65,49.27-17.67,5.25,11.6-2.5,27.12-19.32,38.7,4.21,1.36,11.91,.33,19.11-3.92,5.92-3.5,11.73-7.62,16.49-12.53,4.64-4.79,7.88-10.93,11.59-16.26,7.08,15.7,3.43,30.71-11.05,44.1,17.07-1.06,33.93-24.09,38.37-52.4,10.51,11.68,14.77,35.96,5.33,55.74,10.45-4.37,17.51-16.62,22.99-40.34,10.92,10.03,12.9,22.27,11.42,35.66,9.88-3.44,15.04-25.3,10.93-46.63,11.78,3.55,20.22,18.67,19.78,35.44,10.25-6.78,12.29-24,4.38-41.35,2.27,.81,4.01,1.25,5.57,2.03,10.05,5.04,17.08,13.01,22.13,22.93,1.55,3.04,1,4.84-1.88,6.92-25.28,18.22-53.61,28.09-84.44,31.15-28.39,2.81-56.26,.74-83.04-9.85-8.92-3.53-17.39-7.82-24.81-14.32-7.73-6.77-16.55-12.27-24.5-18.8-4.52-3.71-8.25-8.39-12.33-12.63Z"/><path d="M589.69,168.57c4.76,15.4,1.79,28.81-10.33,40.69-2.41-13.71-2.42-27.71-14.6-37.58,6.53,21.85,1.71,40.21-14.53,56.62-1.21-18.74-1.87-36.78-21.34-45.72,4.94,6.3,8.2,13.15,7.31,21.4-.84,7.79-3.16,14.99-8.72,21.42-4.67-15.23-9.73-29.76-27.61-35.48,7.3,12.99,9.48,25.47,2.81,39.18-7.32-16-19.66-22.4-37.64-21.55,8.82,6.57,14.24,14.11,16.2,24.67-13.53-10.73-29.34-10.89-44.93-12.9,64.43-45.74,137.09-64.2,215.09-65.44,2.11,15.83-7.16,36.68-19.37,44.45-.83-6.45-1.18-13.01-2.61-19.33-1.47-6.46-5.43-11.55-12.16-15.56,9.15,15.15,7.46,29.1-.92,44.02-.45-1.93-.62-2.71-1.05-4.55-1.18,1.77-2.74,3.08-2.53,3.98,1.66,7.35-4.61,9.46-8.06,13.41-.46-.23-.92-.47-1.38-.7,1.3-2.76,2.94-5.42,3.78-8.32,.66-2.26,.45-4.82,.35-7.23-.05-1.08-1.21-2.16-1.14-3.2,.61-8.91-2.59-16.74-7.19-23.96-2.16-3.38-5.54-5.99-8.37-8.94-.35,.2-.7,.41-1.04,.61Z"/><path d="M291.2,315.2c-39.88,18.84-73.2,46.58-104.82,77.44,2.17-7.37,13.49-24.02,25.61-35.63,10.45-10.02,21.39-19.67,33.02-28.27,11.73-8.67,24.57-15.84,35.97-23.06-9.07,1.42-48.1,16.99-91.06,47.59,1.56-2.1,2.88-4.44,4.73-6.25,6.52-6.37,13.09-12.71,19.89-18.78,26.85-23.98,59.26-37.45,92.77-48.84,2.77-.94,4.39-.6,6.41,1.72,5.73,6.58,11.85,12.82,18.03,19.42-27.41,28.82-49.05,62.68-66.28,99.76-1.64-12.53,10.02-49.79,34.05-79.24-5.71,5.1-11.53,10.07-17.09,15.32-5.71,5.39-11.36,10.87-16.68,16.63-5.22,5.66-10.11,11.63-14.91,17.66-4.87,6.13-9.44,12.49-14.17,18.79-.53-16.24,21.62-46.19,54.53-74.27Z"/><path d="M368.97,199.02c-.8-.45-1.59-.9-1.55-.87,.95-3.52,1.68-6.24,2.7-10.03,3.87,5.12,.48,7.82-1.28,10.81,0,0,.13,.09,.13,.09Z"/><path d="M208.8,87.84c-.11,.15-.22,.3-.33,.44l-.15-.3c.15-.04,.33-.11,.48-.15Z"/><path d="M208.8,87.84c1.33-1.82,2.63-3.63,4.15-5.67-.93-.82-1.82-1.59-2.78-2.48,5.93-.22,3.52,4.34,4.3,6.45-2.04,.63-3.85,1.15-5.67,1.7Z"/><path d="M376.7,188.31c.95,.86,2.59,1.65,2.7,2.6,.18,1.59-.63,3.29-1.02,4.94-.62-.02-1.24-.04-1.86-.07-.38-2.23-.76-4.46-1.15-6.7,.44-.26,.89-.52,1.33-.78Z"/></svg>

